<svg width="32" height="32" version="1" xmlns="http://www.w3.org/2000/svg">
 <g transform="translate(32 10)">
  <rect width="22" height="22" rx=".582" ry=".688" opacity=".001"/>
  <path d="m10.787 2.0001a8.9792 8.9792 0 0 0-8.7665 9.0274 8.9792 8.9792 0 0 0 17.958 0 8.9792 8.9792 0 0 0-9.1918-9.0274zm0.21264 2.2426c3.7134 0 6.7344 3.021 6.7344 6.7344 0 3.7134-3.021 6.7344-6.7344 6.7344-3.7134 0-6.7344-3.021-6.7344-6.7344 0-3.7134 3.021-6.7344 6.7344-6.7344zm0.4494 1.1224c-0.44896 0-0.4494 0.46913-0.4494 0.46913v5.3752c-0.43156-0.15269-0.75259-0.23162-1.2342-0.23237-1.7357 0-3.2554 1.005-3.2554 2.2448 0 1.2398 1.6315 2.2448 3.3672 2.2448 1.7357 0 3.3672-1.005 3.3672-2.2448v-5.612s2.5448 1.3005 1.4863 2.2711c-0.29071 0.16675-0.38647 0.42448-0.3354 0.64889 0.07754 0.34077 0.49383 0.60461 1.0698 0.35952 0.86538-0.45119 1.1465-1.2601 1.1465-1.9335 0-2.0203-3.3667-3.5908-5.1626-3.5908z" fill="#282828" stroke-width="1.1224"/>
 </g>
 <rect width="32" height="32" rx=".847" ry="1.001" opacity=".001"/>
 <path d="m15.668 2.0003c-7.6327 0.18021-13.714 6.4258-13.671 14.04 0.0029944 7.7108 6.2711 13.96 14.002 13.96 7.7311 0 13.999-6.2493 14.002-13.96 0.044619-7.8734-6.4418-14.227-14.334-14.04zm0.33159 3.488c5.7906 0 10.502 4.6986 10.502 10.474 0 5.7755-4.711 10.474-10.502 10.474s-10.502-4.6986-10.502-10.474c0-5.7755 4.711-10.474 10.502-10.474zm0.70079 2.3294c-0.70011 0-0.70079 0.72964-0.70079 0.72964v7.7765c-0.67298-0.23749-1.1736-0.36024-1.9246-0.36141-2.7066 0-5.0765 1.5631-5.0765 3.4914 0 1.9282 2.5442 3.4914 5.2508 3.4914 2.7066 0 5.2508-1.5631 5.2508-3.4914v-8.1447s3.4795 1.4389 1.8289 2.9486c-0.45333 0.25936-0.60266 0.66021-0.52303 1.0092 0.12093 0.53 0.77008 0.94037 1.6682 0.55916 1.3495-0.70175 1.7879-1.9598 1.7879-3.0072 0-3.1422-4.7613-5.0011-7.5617-5.0011z" fill="#282828" stroke-width="1.1669"/>
</svg>
