<?xml version="1.0" encoding="UTF-8" standalone="no"?>
<!-- Created with Inkscape (http://www.inkscape.org/) -->

<svg
   id="svg2"
   version="1.1"
   width="354"
   height="164"
   viewBox="0 0 354 164"
   xmlns="http://www.w3.org/2000/svg"
   xmlns:svg="http://www.w3.org/2000/svg"
   xmlns:rdf="http://www.w3.org/1999/02/22-rdf-syntax-ns#"
   xmlns:cc="http://creativecommons.org/ns#"
   xmlns:dc="http://purl.org/dc/elements/1.1/">
  <metadata
     id="metadata8">
    <rdf:RDF>
      <cc:Work
         rdf:about="">
        <dc:format>image/svg+xml</dc:format>
        <dc:type
           rdf:resource="http://purl.org/dc/dcmitype/StillImage" />
      </cc:Work>
    </rdf:RDF>
  </metadata>
  <defs
     id="defs6">
    <filter
       style="color-interpolation-filters:sRGB"
       id="filter4464"
       x="-0.013086207"
       width="1.0261724"
       y="-0.028822785"
       height="1.0576456">
      <feGaussianBlur
         stdDeviation="1.8975"
         id="feGaussianBlur4466" />
    </filter>
  </defs>
  <rect
     ry="2"
     y="3"
     x="3"
     height="158"
     width="348"
     id="rect4201"
     style="fill:#000000;fill-opacity:0.39215687;filter:url(#filter4464)" />
  <rect
     style="fill:#3c3836;fill-opacity:1"
     id="rect4199"
     width="348"
     height="158"
     x="3"
     y="1"
     ry="2" />
  <rect
     style="fill:#1d2021;fill-opacity:1"
     id="rect4227"
     width="34"
     height="19"
     x="4"
     y="139"
     ry="1" />
  <rect
     style="fill:#1d2021;fill-opacity:1"
     id="rect4229"
     width="23"
     height="19"
     x="39"
     y="139"
     ry="1" />
  <rect
     style="fill:#1d2021;fill-opacity:1"
     id="rect4231"
     width="35"
     height="19"
     x="63"
     y="139"
     ry="1" />
  <rect
     style="fill:#504945;fill-opacity:1"
     id="rect4233"
     width="173"
     height="19"
     x="99"
     y="139"
     ry="1" />
  <rect
     style="fill:#1d2021;fill-opacity:1"
     id="rect4235"
     width="41"
     height="19"
     x="273"
     y="139"
     ry="1" />
  <rect
     style="fill:#1d2021;fill-opacity:1"
     id="rect4237"
     width="35"
     height="19"
     x="315"
     y="139"
     ry="1" />
  <rect
     style="fill:#1d2021;fill-opacity:1"
     id="rect4239"
     width="58"
     height="27"
     x="4"
     y="111"
     ry="1" />
  <rect
     style="fill:#1d2021;fill-opacity:1"
     id="rect4241"
     width="40"
     height="27"
     x="4"
     y="83"
     ry="1" />
  <rect
     style="fill:#1d2021;fill-opacity:1"
     id="rect4243"
     width="34"
     height="27"
     x="4"
     y="55"
     ry="1" />
  <rect
     style="fill:#504945;fill-opacity:1"
     id="rect4245"
     width="22"
     height="27"
     x="4"
     y="27"
     ry="1" />
  <rect
     style="fill:#504945;fill-opacity:1"
     id="rect4247"
     width="47"
     height="27"
     x="303"
     y="111"
     ry="1" />
  <rect
     style="fill:#458588;fill-opacity:1"
     id="rect4249"
     width="41"
     height="27"
     x="309"
     y="83"
     ry="1" />
  <rect
     style="fill:#1d2021;fill-opacity:1"
     id="rect4251"
     width="35"
     height="27"
     x="315"
     y="27"
     ry="1" />
  <rect
     style="fill:#504945;fill-opacity:1"
     id="rect4253"
     width="23"
     height="27"
     x="291"
     y="27"
     ry="1" />
  <rect
     ry="1"
     y="27"
     x="267"
     height="27"
     width="23"
     id="rect4255"
     style="fill:#504945;fill-opacity:1" />
  <rect
     ry="1"
     y="27"
     x="243"
     height="27"
     width="23"
     id="rect4255-3"
     style="fill:#504945;fill-opacity:1" />
  <rect
     ry="1"
     y="27"
     x="219"
     height="27"
     width="23"
     id="rect4255-6"
     style="fill:#504945;fill-opacity:1" />
  <rect
     ry="1"
     y="27"
     x="195"
     height="27"
     width="23"
     id="rect4255-7"
     style="fill:#504945;fill-opacity:1" />
  <rect
     ry="1"
     y="27"
     x="171"
     height="27"
     width="23"
     id="rect4255-5"
     style="fill:#504945;fill-opacity:1" />
  <rect
     ry="1"
     y="27"
     x="147"
     height="27"
     width="23"
     id="rect4255-35"
     style="fill:#504945;fill-opacity:1" />
  <rect
     ry="1"
     y="27"
     x="123"
     height="27"
     width="23"
     id="rect4255-62"
     style="fill:#504945;fill-opacity:1" />
  <rect
     ry="1"
     y="27"
     x="99"
     height="27"
     width="23"
     id="rect4255-9"
     style="fill:#504945;fill-opacity:1" />
  <rect
     ry="1"
     y="27"
     x="75"
     height="27"
     width="23"
     id="rect4255-1"
     style="fill:#504945;fill-opacity:1" />
  <rect
     ry="1"
     y="27"
     x="51"
     height="27"
     width="23"
     id="rect4255-2"
     style="fill:#504945;fill-opacity:1" />
  <rect
     ry="1"
     y="27"
     x="27"
     height="27"
     width="23"
     id="rect4255-70"
     style="fill:#504945;fill-opacity:1" />
  <rect
     ry="1"
     y="55"
     x="303"
     height="27"
     width="23"
     id="rect4326"
     style="fill:#504945;fill-opacity:1" />
  <rect
     style="fill:#504945;fill-opacity:1"
     id="rect4328"
     width="23"
     height="27"
     x="279"
     y="55"
     ry="1" />
  <rect
     style="fill:#504945;fill-opacity:1"
     id="rect4330"
     width="23"
     height="27"
     x="255"
     y="55"
     ry="1" />
  <rect
     style="fill:#504945;fill-opacity:1"
     id="rect4332"
     width="23"
     height="27"
     x="231"
     y="55"
     ry="1" />
  <rect
     style="fill:#504945;fill-opacity:1"
     id="rect4334"
     width="23"
     height="27"
     x="207"
     y="55"
     ry="1" />
  <rect
     style="fill:#504945;fill-opacity:1"
     id="rect4336"
     width="23"
     height="27"
     x="183"
     y="55"
     ry="1" />
  <rect
     style="fill:#504945;fill-opacity:1"
     id="rect4338"
     width="23"
     height="27"
     x="159"
     y="55"
     ry="1" />
  <rect
     style="fill:#504945;fill-opacity:1"
     id="rect4340"
     width="23"
     height="27"
     x="135"
     y="55"
     ry="1" />
  <rect
     style="fill:#504945;fill-opacity:1"
     id="rect4342"
     width="23"
     height="27"
     x="111"
     y="55"
     ry="1" />
  <rect
     style="fill:#504945;fill-opacity:1"
     id="rect4344"
     width="23"
     height="27"
     x="87"
     y="55"
     ry="1" />
  <rect
     style="fill:#504945;fill-opacity:1"
     id="rect4346"
     width="23"
     height="27"
     x="63"
     y="55"
     ry="1" />
  <rect
     style="fill:#504945;fill-opacity:1"
     id="rect4348"
     width="23"
     height="27"
     x="39"
     y="55"
     ry="1" />
  <rect
     ry="1"
     y="83"
     x="285"
     height="27"
     width="23"
     id="rect4390"
     style="fill:#504945;fill-opacity:1" />
  <rect
     ry="1"
     y="83"
     x="261"
     height="27"
     width="23"
     id="rect4392"
     style="fill:#504945;fill-opacity:1" />
  <rect
     ry="1"
     y="83"
     x="237"
     height="27"
     width="23"
     id="rect4394"
     style="fill:#504945;fill-opacity:1" />
  <rect
     ry="1"
     y="83"
     x="213"
     height="27"
     width="23"
     id="rect4396"
     style="fill:#504945;fill-opacity:1" />
  <rect
     ry="1"
     y="83"
     x="189"
     height="27"
     width="23"
     id="rect4398"
     style="fill:#504945;fill-opacity:1" />
  <rect
     ry="1"
     y="83"
     x="165"
     height="27"
     width="23"
     id="rect4400"
     style="fill:#504945;fill-opacity:1" />
  <rect
     ry="1"
     y="83"
     x="141"
     height="27"
     width="23"
     id="rect4402"
     style="fill:#504945;fill-opacity:1" />
  <rect
     ry="1"
     y="83"
     x="117"
     height="27"
     width="23"
     id="rect4404"
     style="fill:#504945;fill-opacity:1" />
  <rect
     ry="1"
     y="83"
     x="93"
     height="27"
     width="23"
     id="rect4406"
     style="fill:#504945;fill-opacity:1" />
  <rect
     ry="1"
     y="83"
     x="69"
     height="27"
     width="23"
     id="rect4408"
     style="fill:#504945;fill-opacity:1" />
  <rect
     ry="1"
     y="83"
     x="45"
     height="27"
     width="23"
     id="rect4410"
     style="fill:#504945;fill-opacity:1" />
  <rect
     style="fill:#504945;fill-opacity:1"
     id="rect4414"
     width="23"
     height="27"
     x="279"
     y="111"
     ry="1" />
  <rect
     style="fill:#504945;fill-opacity:1"
     id="rect4416"
     width="23"
     height="27"
     x="255"
     y="111"
     ry="1" />
  <rect
     style="fill:#504945;fill-opacity:1"
     id="rect4418"
     width="23"
     height="27"
     x="231"
     y="111"
     ry="1" />
  <rect
     style="fill:#504945;fill-opacity:1"
     id="rect4420"
     width="23"
     height="27"
     x="207"
     y="111"
     ry="1" />
  <rect
     style="fill:#504945;fill-opacity:1"
     id="rect4422"
     width="23"
     height="27"
     x="183"
     y="111"
     ry="1" />
  <rect
     style="fill:#504945;fill-opacity:1"
     id="rect4424"
     width="23"
     height="27"
     x="159"
     y="111"
     ry="1" />
  <rect
     style="fill:#504945;fill-opacity:1"
     id="rect4426"
     width="23"
     height="27"
     x="135"
     y="111"
     ry="1" />
  <rect
     style="fill:#504945;fill-opacity:1"
     id="rect4428"
     width="23"
     height="27"
     x="111"
     y="111"
     ry="1" />
  <rect
     style="fill:#504945;fill-opacity:1"
     id="rect4430"
     width="23"
     height="27"
     x="87"
     y="111"
     ry="1" />
  <rect
     style="fill:#504945;fill-opacity:1"
     id="rect4432"
     width="23"
     height="27"
     x="63"
     y="111"
     ry="1" />
  <rect
     style="fill:#504945;fill-opacity:1"
     id="rect4434"
     width="23"
     height="27"
     x="327"
     y="55"
     ry="1" />
  <text
     xml:space="preserve"
     style="font-style:normal;font-weight:normal;line-height:0%;font-family:sans-serif;letter-spacing:0px;word-spacing:0px;fill:#000000;fill-opacity:1;stroke:none;stroke-width:1px;stroke-linecap:butt;stroke-linejoin:miter;stroke-opacity:1"
     x="10"
     y="75"
     id="text4436"><tspan
       id="tspan4438"
       x="10"
       y="75"
       style="font-size:12.5px;line-height:1.25"> </tspan></text>
  <g
     style="fill:#000000"
     id="g4566"
     transform="matrix(0.75,0,0,0.75,12,60)">
    <path
       id="path4556"
       d="M 0,0 24,0 24,24 0,24 Z"
       style="fill:none" />
    <path
       id="path4558"
       d="M 11.59,7.41 15.17,11 1,11 1,13 15.17,13 11.58,16.59 13,18 19,12 13,6 11.59,7.41 Z M 20,6 l 0,12 2,0 0,-12 -2,0 z"
       style="fill:#ebdbb2;fill-opacity:1" />
  </g>
  <g
     style="fill:#000000"
     id="g4722"
     transform="matrix(0.75,0,0,0.75,323.5,31.5)">
    <path
       id="path4712"
       d="M 0,0 24,0 24,24 0,24 Z"
       style="fill:none" />
    <path
       id="path4714"
       d="M 21,11 6.83,11 10.41,7.41 9,6 3,12 9,18 10.41,16.59 6.83,13 21,13 Z"
       style="fill:#ebdbb2;fill-opacity:1" />
  </g>
  <g
     style="fill:#000000"
     id="g4793"
     transform="matrix(0.75,0,0,0.75,320.5,87.5)">
    <path
       id="path4783"
       d="M 0,0 24,0 24,24 0,24 Z"
       style="fill:none" />
    <path
       id="path4785"
       d="M 19,7 19,11 5.83,11 9.41,7.41 8,6 2,12 8,18 9.41,16.59 5.83,13 21,13 21,7 Z"
       style="fill:#ebdbb2;fill-opacity:1" />
  </g>
  <text
     xml:space="preserve"
     style="font-style:normal;font-variant:normal;font-weight:normal;font-stretch:condensed;line-height:0%;font-family:'Roboto Condensed';-inkscape-font-specification:'Roboto Condensed, Condensed';letter-spacing:0px;word-spacing:0px;fill:#ebdbb2;fill-opacity:1;stroke:none;stroke-width:1px;stroke-linecap:butt;stroke-linejoin:miter;stroke-opacity:1"
     x="11.015381"
     y="100"
     id="text4797"><tspan
       id="tspan4799"
       x="11.015381"
       y="100"
       style="font-size:13.75px;line-height:1.25;fill:#ebdbb2;fill-opacity:1">caps</tspan></text>
  <text
     xml:space="preserve"
     style="font-style:normal;font-weight:normal;line-height:0%;font-family:sans-serif;letter-spacing:0px;word-spacing:0px;fill:#000000;fill-opacity:1;stroke:none;stroke-width:1px;stroke-linecap:butt;stroke-linejoin:miter;stroke-opacity:1"
     x="16"
     y="130"
     id="text4801"><tspan
       id="tspan4803"
       x="16"
       y="130"
       style="font-size:12.5px;line-height:1.25"> </tspan></text>
  <text
     id="text4805"
     y="129.86572"
     x="10.995239"
     style="font-style:normal;font-variant:normal;font-weight:normal;font-stretch:condensed;line-height:0%;font-family:'Roboto Condensed';-inkscape-font-specification:'Roboto Condensed, Condensed';letter-spacing:0px;word-spacing:0px;fill:#ebdbb2;fill-opacity:1;stroke:none;stroke-width:1px;stroke-linecap:butt;stroke-linejoin:miter;stroke-opacity:1"
     xml:space="preserve"><tspan
       y="129.86572"
       x="10.995239"
       id="tspan4807"
       style="font-size:13.75px;line-height:1.25;fill:#ebdbb2;fill-opacity:1">shift</tspan></text>
  <text
     xml:space="preserve"
     style="font-style:normal;font-variant:normal;font-weight:normal;font-stretch:condensed;line-height:0%;font-family:'Roboto Condensed';-inkscape-font-specification:'Roboto Condensed, Condensed';letter-spacing:0px;word-spacing:0px;fill:#ebdbb2;fill-opacity:1;stroke:none;stroke-width:1px;stroke-linecap:butt;stroke-linejoin:miter;stroke-opacity:1"
     x="10.746826"
     y="154"
     id="text4809"><tspan
       id="tspan4811"
       x="10.746826"
       y="154"
       style="font-size:13.75px;line-height:1.25;fill:#ebdbb2;fill-opacity:1">ins</tspan></text>
  <text
     id="text4813"
     y="154"
     x="72.466858"
     style="font-style:normal;font-variant:normal;font-weight:normal;font-stretch:condensed;line-height:0%;font-family:'Roboto Condensed';-inkscape-font-specification:'Roboto Condensed, Condensed';letter-spacing:0px;word-spacing:0px;fill:#ebdbb2;fill-opacity:1;stroke:none;stroke-width:1px;stroke-linecap:butt;stroke-linejoin:miter;stroke-opacity:1"
     xml:space="preserve"><tspan
       y="154"
       x="72.466858"
       id="tspan4815"
       style="font-size:13.75px;line-height:1.25;fill:#ebdbb2;fill-opacity:1">del</tspan></text>
  <g
     style="fill:#000000"
     id="g4896"
     transform="matrix(0.75,0,0,0.75,40,115.5)">
    <path
       id="path4886"
       d="M 0,0 24,0 24,24 0,24 Z"
       style="fill:none" />
    <path
       id="path4888"
       d="m 9,16 6,0 0,-6 4,0 -7,-7 -7,7 4,0 z m -4,2 14,0 0,2 -14,0 z"
       style="fill:#ebdbb2;fill-opacity:1" />
  </g>
  <g
     style="fill:#000000"
     id="g4967"
     transform="matrix(0.75,0,0,0.75,284.5,139.5)">
    <path
       id="path4957"
       d="m 10,8.6666667 4,0 L 14,6 17,6 12,1 7,6 10,6 Z M 8.6666667,10 6,10 6,7 1,12 6,17 6,14 8.6666667,14 Z M 23,12 18,7 l 0,3 -2.666667,0 0,4 L 18,14 l 0,3 z m -9,3.333333 -4,0 L 10,18 l -3,0 5,5 5,-5 -3,0 z"
       style="fill:#ebdbb2;fill-opacity:1" />
    <path
       id="path4959"
       d="M 0,0 24,0 24,24 0,24 Z"
       style="fill:none" />
  </g>
  <text
     xml:space="preserve"
     style="font-style:normal;font-variant:normal;font-weight:normal;font-stretch:condensed;line-height:0%;font-family:'Roboto Condensed';-inkscape-font-specification:'Roboto Condensed, Condensed';letter-spacing:0px;word-spacing:0px;fill:#ebdbb2;fill-opacity:1;stroke:none;stroke-width:1px;stroke-linecap:butt;stroke-linejoin:miter;stroke-opacity:1"
     x="322.88239"
     y="152.1322"
     id="text4971"><tspan
       id="tspan4973"
       x="322.88239"
       y="152.1322"
       style="font-size:13.75px;line-height:1.25;fill:#ebdbb2;fill-opacity:1">esc</tspan></text>
</svg>
