<?xml version="1.0" encoding="UTF-8" standalone="no"?>
<svg
   width="32"
   height="32"
   version="1.1"
   id="svg26"
   sodipodi:docname="list.svg"
   inkscape:version="1.1.1 (3bf5ae0d25, 2021-09-20, custom)"
   xmlns:inkscape="http://www.inkscape.org/namespaces/inkscape"
   xmlns:sodipodi="http://sodipodi.sourceforge.net/DTD/sodipodi-0.dtd"
   xmlns="http://www.w3.org/2000/svg"
   xmlns:svg="http://www.w3.org/2000/svg">
  <defs
     id="defs30" />
  <sodipodi:namedview
     id="namedview28"
     pagecolor="#ffffff"
     bordercolor="#666666"
     borderopacity="1.0"
     inkscape:pageshadow="2"
     inkscape:pageopacity="0.0"
     inkscape:pagecheckerboard="0"
     showgrid="true"
     inkscape:zoom="11.313709"
     inkscape:cx="36.415999"
     inkscape:cy="3.7123106"
     inkscape:window-width="1920"
     inkscape:window-height="1060"
     inkscape:window-x="0"
     inkscape:window-y="20"
     inkscape:window-maximized="1"
     inkscape:current-layer="svg26">
    <inkscape:grid
       type="xygrid"
       id="grid113" />
  </sodipodi:namedview>
  <g
     id="22-22-list-remove"
     transform="translate(-253,-17)">
    <rect
       style="opacity:0.001"
       width="22"
       height="22"
       x="285"
       y="-5"
       id="rect2" />
    <path
       style="fill:#ebdbb2"
       d="m 294,4 h -6 v 4 h 6 4 6 V 4 h -6 z"
       id="path13-5-6"
       sodipodi:nodetypes="ccccccccc" />
  </g>
  <g
     id="22-22-list-add"
     transform="translate(-285.00081,-16.99666)">
    <path
       style="opacity:0.001"
       d="m 285.00081,-5.00334 h 22 v 22 h -22 z"
       id="path11" />
    <path
       style="fill:#ebdbb2"
       transform="translate(285.00081,-5.00334)"
       d="M 9,3 V 9 H 3 v 4 h 6 v 6 h 4 v -6 h 6 V 9 H 13 V 3 Z"
       id="path13" />
  </g>
  <g
     id="list-add"
     transform="translate(3.6590725e-6)">
    <path
       style="opacity:0.001"
       d="M -4.318145e-6,-4.8197e-7 H 31.999997 V 32.000001 H -4.318145e-6 Z"
       id="path16" />
    <path
       style="fill:#ebdbb2"
       d="m 13,4 v 9 H 4.0000001 v 6 H 13 v 9 h 6 v -9 h 9 V 13 H 19 V 4 Z"
       id="path18" />
  </g>
  <g
     id="list-remove"
     transform="translate(32.000003)">
    <rect
       style="opacity:0.001"
       width="32"
       height="32"
       x="0"
       y="0"
       id="rect21" />
  </g>
  <path
     style="fill:#ebdbb2"
     d="m 45,13 h -9 v 6 h 9 6 9 v -6 h -9 z"
     id="path18-7-2"
     sodipodi:nodetypes="ccccccccc" />
</svg>
