<svg xmlns="http://www.w3.org/2000/svg" width="32" height="32" version="1.1">
   <path style="color:#ebdbb2;opacity:0.3;fill:currentColor;stroke-width:1.50015" d=" m 15.5,4 a 1.6000609,1.6000609 0 0 1 1.590459,1.7600668 7.9795032,7.9795032 0 0 1 6.409844,7.8402982 v
      7.200274 l 3.200121,3.200122 v 0.800027 H 4.299572 V 24.000761 L 7.499694,20.800639 V 13.600365 A
      7.9811033,7.9811033 0 0 1 13.909539,5.7600668 1.6000609,1.6000609 0 0 1 15.5,4 Z m 2.766504,22.400851 A
      3.2001214,3.2001214 0 0 1 15.5,28.000914 3.2001214,3.2001214 0 0 1 12.731894,26.400852 Z" id="path5" />
   <path style="color:#ebdbb2;opacity:0.3;fill:currentColor;stroke-width:1.00009" d=" m 11,-19 a 1.0666966,1.0666966 0 0 1 1.060295,1.173367 5.3196156,5.3196156 0 0 1 4.273186,5.226813 v
      4.8001343 l 2.133393,2.1333934 v 0.533346 H 3.533122 v -0.533346 L 5.666516,-7.7996857 V -12.59982 A
      5.3206823,5.3206823 0 0 1 9.939703,-17.826633 1.0666966,1.0666966 0 0 1 11,-19 Z m 1.844318,14.9337517 A
      2.1333929,2.1333929 0 0 1 11,-2.9995503 2.1333929,2.1333929 0 0 1 9.154614,-4.0662477 Z" id="path5-3" />
</svg>