<svg xmlns="http://www.w3.org/2000/svg" width="32" height="32" version="1.1">
   <path id="expander-bottom" style="fill:#ebdbb2" d="m 1,40 2,-2 2,2 z" />
   <path id="expander-top" style="fill:#ebdbb2" d="m 1,34 2,2 2,-2 z" />
   <path id="expander-right" style="fill:#ebdbb2" d="m 6,35 -2,2 2,2 z" />
   <path id="expander-left" style="fill:#ebdbb2" d="m 0,35 2,2 -2,2 z" />
   <path style="color:#ebdbb2;fill:currentColor;stroke-width:1.50015" class="ColorScheme-Text"
      d="m 16.000002,3.999543 a 1.6000609,1.6000609 0 0 1 1.590459,1.7600668 7.9795032,7.9795032 0 0 1 6.409844,7.8402982 v 7.200274 l 3.200121,3.200122 v 0.800027 H 4.7995743 V 24.000304 L 7.9996965,20.800182 V 13.599908 A 7.9811033,7.9811033 0 0 1 14.409541,5.7596098 1.6000609,1.6000609 0 0 1 16.000002,3.999543 Z m 2.766504,22.400851 a 3.2001214,3.2001214 0 0 1 -2.766504,1.600063 3.2001214,3.2001214 0 0 1 -2.768106,-1.600062 z"
      id="path5" />
   <path style="color:#ebdbb2;fill:currentColor;stroke-width:1.00009" class="ColorScheme-Text"
      d="m 11,-19 a 1.0666966,1.0666966 0 0 1 1.060296,1.173367 5.3196156,5.3196156 0 0 1 4.273186,5.226813 v 4.8001345 l 2.133393,2.1333933 v 0.533346 H 3.533123 v -0.533346 L 5.666516,-7.7996855 V -12.59982 A 5.3206823,5.3206823 0 0 1 9.939704,-17.826633 1.0666966,1.0666966 0 0 1 11,-19 Z m 1.844318,14.9337518 A 2.1333929,2.1333929 0 0 1 11,-2.9995502 2.1333929,2.1333929 0 0 1 9.154615,-4.0662475 Z"
      id="path5-3" />
   <path style="color:#ebdbb2;fill:currentColor;stroke-width:1.50015" class="ColorScheme-Text"
      d="m 79.5,4 a 1.6000609,1.6000609 0 0 1 1.590459,1.7600668 7.9795032,7.9795032 0 0 1 6.409844,7.8402982 v 7.200274 l 3.200121,3.200122 v 0.800027 H 68.299572 v -0.800027 l 3.200122,-3.200122 V 13.600365 A 7.9811033,7.9811033 0 0 1 77.909539,5.7600668 1.6000609,1.6000609 0 0 1 79.5,4 Z m 2.766504,22.400851 A 3.2001214,3.2001214 0 0 1 79.5,28.000914 3.2001214,3.2001214 0 0 1 76.731894,26.400852 Z"
      id="path5-6" />
   <path style="color:#ebdbb2;fill:currentColor;stroke-width:1.00009" class="ColorScheme-Text"
      d="m 75,-19 a 1.0666966,1.0666966 0 0 1 1.060296,1.173367 5.3196156,5.3196156 0 0 1 4.273186,5.226813 v 4.800134 l 2.133393,2.1333933 v 0.533346 H 67.533123 v -0.533346 L 69.666516,-7.799686 V -12.59982 A 5.3206823,5.3206823 0 0 1 73.939704,-17.826633 1.0666966,1.0666966 0 0 1 75,-19 Z m 1.844318,14.9337513 A 2.1333929,2.1333929 0 0 1 75,-2.9995507 2.1333929,2.1333929 0 0 1 73.154615,-4.066248 Z"
      id="path5-3-7" />
   <path style="color:#ebdbb2;fill:currentColor;stroke-width:1.50015;opacity:0.3" class="ColorScheme-Text"
      d="m 111.5,4 a 1.6000609,1.6000609 0 0 1 1.59045,1.7600668 7.9795032,7.9795032 0 0 1 6.40985,7.8402982 v 7.200274 l 3.20012,3.200122 v 0.800027 h -22.40085 v -0.800027 l 3.20012,-3.200122 V 13.600365 A 7.9811033,7.9811033 0 0 1 109.90953,5.7600668 1.6000609,1.6000609 0 0 1 111.5,4 Z m 2.7665,22.400851 a 3.2001214,3.2001214 0 0 1 -2.7665,1.600063 3.2001214,3.2001214 0 0 1 -2.76811,-1.600062 z"
      id="path5-6-5" />
   <path style="color:#ebdbb2;fill:currentColor;stroke-width:1.00009;opacity:0.3" class="ColorScheme-Text"
      d="m 107,-19 a 1.0666966,1.0666966 0 0 1 1.06029,1.173367 5.3196156,5.3196156 0 0 1 4.27319,5.226813 v 4.800134 l 2.13339,2.1333933 v 0.533346 H 99.533123 v -0.533346 L 101.66652,-7.799686 V -12.59982 A 5.3206823,5.3206823 0 0 1 105.9397,-17.826633 1.0666966,1.0666966 0 0 1 107,-19 Z m 1.84432,14.9337513 A 2.1333929,2.1333929 0 0 1 107,-2.9995507 2.1333929,2.1333929 0 0 1 105.15462,-4.066248 Z"
      id="path5-3-7-3" />
   <path style="color:#ebdbb2;fill:currentColor;stroke-width:1.00009;opacity:0.3" class="ColorScheme-Text"
      d="m 43,-19 a 1.0666966,1.0666966 0 0 1 1.060296,1.173367 5.3196156,5.3196156 0 0 1 4.273186,5.226813 v 4.800134 l 2.133393,2.1333933 v 0.533346 H 35.533123 v -0.533346 L 37.666516,-7.799686 V -12.59982 A 5.3206823,5.3206823 0 0 1 41.939704,-17.826633 1.0666966,1.0666966 0 0 1 43,-19 Z m 1.844318,14.9337513 A 2.1333929,2.1333929 0 0 1 43,-2.9995507 2.1333929,2.1333929 0 0 1 41.154615,-4.066248 Z"
      id="path5-3-7-5" />
   <path style="color:#ebdbb2;fill:currentColor;stroke-width:1.50015;opacity:0.3" class="ColorScheme-Text"
      d="m 47.5,4 a 1.6000609,1.6000609 0 0 1 1.590459,1.7600668 7.9795032,7.9795032 0 0 1 6.409844,7.8402982 v 7.200274 l 3.200121,3.200122 v 0.800027 H 36.299572 v -0.800027 l 3.200122,-3.200122 V 13.600365 A 7.9811033,7.9811033 0 0 1 45.909539,5.7600668 1.6000609,1.6000609 0 0 1 47.5,4 Z m 2.766504,22.400851 A 3.2001214,3.2001214 0 0 1 47.5,28.000914 3.2001214,3.2001214 0 0 1 44.731894,26.400852 Z"
      id="path5-6-6" />
   <path style="color:#ebdbb2;fill:currentColor;stroke-width:1.50015" class="ColorScheme-Text"
      d="m 149.50023,5.6077589 a 1.6000609,1.6000609 0 0 1 0.49734,2.3194925 7.9795032,7.9795032 0 0 1 1.63094,9.9948176 l -3.60014,6.23562 1.17133,4.371447 -0.40002,0.692844 -19.3997,-11.200425 0.40001,-0.692844 4.37145,-1.171327 3.60013,-6.2356201 a 7.9811033,7.9811033 0 0 1 9.47125,-3.5849725 1.6000609,1.6000609 0 0 1 2.25741,-0.7290325 z m -8.80457,20.7829561 a 3.2001214,3.2001214 0 0 1 -3.19589,0.0024 3.2001214,3.2001214 0 0 1 -1.59722,-2.769749 z"
      id="path5-6-2" />
   <path style="color:#ebdbb2;fill:currentColor;stroke-width:1.50015" class="ColorScheme-Text"
      d="m 181.50022,5.6077563 a 1.6000609,1.6000609 0 0 1 0.49733,2.3194898 7.9795032,7.9795032 0 0 1 1.63095,9.9948189 l -3.60015,6.235617 1.17134,4.37145 -0.40003,0.692842 -19.39969,-11.200422 0.40001,-0.692843 4.37145,-1.171328 3.60012,-6.235623 a 7.9811033,7.9811033 0 0 1 9.47126,-3.5849701 1.6000609,1.6000609 0 0 1 2.25741,-0.7290316 z m -8.80458,20.7829517 a 3.2001214,3.2001214 0 0 1 -3.19589,0.0024 3.2001214,3.2001214 0 0 1 -1.59722,-2.76975 z"
      id="path5-6-2-9" />
   <g id="22-22-notification-progress-active-0" transform="matrix(0.28305786,0,0,0.28305786,169.56405,22.150826)">
      <rect style="opacity:0.00100002" width="22" height="22" x="40" y="0" id="rect30-9" />
      <path style="fill:#458588"
         d="m 51,2.9999999 c -4.418278,0 -8,3.5817221 -8,8.0000001 0,4.418278 3.581722,8 8,8 4.418278,0 8,-3.581722 8,-8 0,-4.418278 -3.581722,-8.0000001 -8,-8.0000001 z"
         id="path32-3" />
   </g>
   <path style="color:#ebdbb2;fill:currentColor;stroke-width:1.00009" class="ColorScheme-Text"
      d="m 143.00011,-17.928171 a 1.0666966,1.0666966 0 0 1 0.33156,1.546311 5.3196156,5.3196156 0 0 1 1.08728,6.6631479 l -2.40007,4.1570382 0.78088,2.9142678 -0.26668,0.4618912 -12.933,-7.466875 0.26667,-0.4618911 2.91427,-0.780878 2.40006,-4.157038 a 5.3206823,5.3206823 0 0 1 6.3141,-2.389958 1.0666966,1.0666966 0 0 1 1.50493,-0.486016 z m -5.86965,13.8551686 a 2.1333929,2.1333929 0 0 1 -2.13057,0.00163 2.1333929,2.1333929 0 0 1 -1.06481,-1.8464819 z"
      id="path5-3-7-0" />
   <path style="color:#ebdbb2;fill:currentColor;stroke-width:1.00009" class="ColorScheme-Text"
      d="m 175.0771,-18.477217 a 1.0666966,1.0666966 0 0 1 0.33155,1.546312 5.3196156,5.3196156 0 0 1 1.08729,6.663146 l -2.40008,4.1570361 0.7809,2.9142741 -0.2667,0.4618853 -12.93299,-7.4668695 0.26668,-0.46189 2.91426,-0.780878 2.40005,-4.157042 a 5.3206823,5.3206823 0 0 1 6.31411,-2.389958 1.0666966,1.0666966 0 0 1 1.50493,-0.486016 z m -5.86966,13.8551649 a 2.1333929,2.1333929 0 0 1 -2.13057,0.0016 2.1333929,2.1333929 0 0 1 -1.06481,-1.8464802 z"
      id="path5-6-2-9-6" />
   <g id="22-22-notification-progress-active-0-2" transform="matrix(0.18870334,0,0,0.18870334,167.11973,-7.4486117)">
      <rect style="opacity:0.00100002" width="22" height="22" x="40" y="0" id="rect30-9-6" />
      <path style="fill:#458588"
         d="m 51,2.9999999 c -4.418278,0 -8,3.5817221 -8,8.0000001 0,4.418278 3.581722,8 8,8 4.418278,0 8,-3.581722 8,-8 0,-4.418278 -3.581722,-8.0000001 -8,-8.0000001 z"
         id="path32-3-1" />
   </g>
</svg>