<svg xmlns="http://www.w3.org/2000/svg" width="32" height="32" version="1.1">

   <path id="expander-bottom" style="fill:#ebdbb2" d="m 1,40 2,-2 2,2 z" />
   <path id="expander-top" style="fill:#ebdbb2" d="m 1,34 2,2 2,-2 z" />
   <path id="expander-right" style="fill:#ebdbb2" d="m 6,35 -2,2 2,2 z" />
   <path id="expander-left" style="fill:#ebdbb2" d="m 0,35 2,2 -2,2 z" />
   <g id="22-22-notification-inactive" transform="translate(0,-22)">
      <rect style="opacity:0.001" width="22" height="22" x="0" y="0" id="rect13" />
      <path style="fill:#ebdbb2"
         d="m 11.3734,3.084488 c 0.630873,6.231e-4 1.123384,0.5456558 1.060296,1.173367 2.489133,0.4993929 4.278499,2.6880829 4.273186,5.226813 v 4.800135 l 2.133393,2.133393 v 0.533346 H 3.906523 V 16.418196 L 6.039916,14.284803 V 9.484668 C 6.0350213,6.9460861 7.8241985,4.7576275 10.313104,4.257855 10.250016,3.6301439 10.742526,3.0851112 11.3734,3.084488 Z m 1.844318,14.933752 c -0.380512,0.659069 -1.083293,1.065536 -1.844318,1.066698 -0.761407,-7.81e-4 -1.4646825,-0.407299 -1.8453853,-1.066697 z"
         id="path15" />
   </g>
   <g id="notification-inactive">
      <rect style="opacity:0.001" width="32" height="32" x="0" y="0" id="rect38" />
      <path style="fill:#ebdbb2"
         d="m 16.000002,3.999543 a 1.6000609,1.6000609 0 0 1 1.590459,1.7600668 7.9795032,7.9795032 0 0 1 6.409844,7.8402982 v 7.200274 l 3.200121,3.200122 v 0.800027 H 4.7995743 V 24.000304 L 7.9996965,20.800182 V 13.599908 A 7.9811033,7.9811033 0 0 1 14.409541,5.7596098 1.6000609,1.6000609 0 0 1 16.000002,3.999543 Z m 2.766504,22.400851 a 3.2001214,3.2001214 0 0 1 -2.766504,1.600063 3.2001214,3.2001214 0 0 1 -2.768106,-1.600062 z"
         id="path40" />
   </g>
   <g id="notification-disabled" transform="translate(32)">
      <rect style="opacity:0.001" width="32" height="32" x="0" y="0" id="rect43" />
      <path style="fill:#ebdbb2;opacity:0.3"
         d="m 16.000002,3.999543 a 1.6000609,1.6000609 0 0 1 1.590459,1.7600668 7.9795032,7.9795032 0 0 1 6.409844,7.8402982 v 7.200274 l 3.200121,3.200122 v 0.800027 H 4.7995743 V 24.000304 L 7.9996965,20.800182 V 13.599908 A 7.9811033,7.9811033 0 0 1 14.409541,5.7596098 1.6000609,1.6000609 0 0 1 16.000002,3.999543 Z m 2.766504,22.400851 a 3.2001214,3.2001214 0 0 1 -2.766504,1.600063 3.2001214,3.2001214 0 0 1 -2.768106,-1.600062 z"
         id="path45" />
   </g>
   <g id="notification-empty" transform="translate(64)">
      <rect style="opacity:0.001" width="32" height="32" x="0" y="0" id="rect48" />
      <path style="fill:#ebdbb2"
         d="m 16.000002,3.999543 a 1.6000609,1.6000609 0 0 1 1.590459,1.7600668 7.9795032,7.9795032 0 0 1 6.409844,7.8402982 v 7.200274 l 3.200121,3.200122 v 0.800027 H 4.7995743 V 24.000304 L 7.9996965,20.800182 V 13.599908 A 7.9811033,7.9811033 0 0 1 14.409541,5.7596098 1.6000609,1.6000609 0 0 1 16.000002,3.999543 Z m 2.766504,22.400851 a 3.2001214,3.2001214 0 0 1 -2.766504,1.600063 3.2001214,3.2001214 0 0 1 -2.768106,-1.600062 z"
         id="path50" />
   </g>
   <g id="notification-progress-inactive" transform="translate(96)">
      <rect style="opacity:0.001" width="32" height="32" x="0" y="0" />
      <path style="fill:#ebdbb2;opacity:0.3"
         d="M 15.5,4 C 9.1487254,4 4,9.1487254 4,15.5 4,21.851275 9.1487254,27 15.5,27 21.851275,27 27,21.851275 27,15.5 27,9.1487254 21.851275,4 15.5,4 Z" />
   </g>
   <g id="notification-progress-active" transform="translate(128)">
      <rect style="opacity:0.001" width="32" height="32" x="0" y="0" id="rect58" />
      <path style="fill:#ebdbb2"
         d="m 22.00023,5.6073003 a 1.6000609,1.6000609 0 0 1 0.497345,2.3194921 7.9795032,7.9795032 0 0 1 1.630938,9.9948196 l -3.600137,6.23562 1.171325,4.371447 -0.400013,0.692844 L 1.8999813,18.021097 2.2999948,17.328254 6.671443,16.156928 10.27158,9.9213075 A 7.9811033,7.9811033 0 0 1 19.742817,6.3363324 1.6000609,1.6000609 0 0 1 22.00023,5.6073003 Z M 13.195667,26.390258 a 3.2001214,3.2001214 0 0 1 -3.1958937,0.0024 3.2001214,3.2001214 0 0 1 -1.5972192,-2.769748 z"
         id="path60" />
   </g>
   <g id="notification-active" transform="translate(160)">
      <rect style="opacity:0.001" width="32" height="32" x="0" y="0" id="rect63" />
      <path style="fill:#ebdbb2"
         d="m 22.00023,5.6073003 a 1.6000609,1.6000609 0 0 1 0.497345,2.3194921 7.9795032,7.9795032 0 0 1 1.630938,9.9948196 l -3.600137,6.23562 1.171325,4.371447 -0.400013,0.692844 L 1.8999813,18.021097 2.2999948,17.328254 6.671443,16.156928 10.27158,9.9213075 A 7.9811033,7.9811033 0 0 1 19.742817,6.3363324 1.6000609,1.6000609 0 0 1 22.00023,5.6073003 Z M 13.195667,26.390258 a 3.2001214,3.2001214 0 0 1 -3.1958937,0.0024 3.2001214,3.2001214 0 0 1 -1.5972192,-2.769748 z"
         id="path65" />
   </g>
   <g id="22-22-notification-inactive-3" transform="translate(32,-22)" style="opacity:0.3">
      <rect style="opacity:0.00100002" width="22" height="22" x="0" y="0" id="rect13-5" />
      <path style="fill:#ebdbb2"
         d="m 11.3734,3.084488 c 0.630873,6.231e-4 1.123384,0.5456558 1.060296,1.173367 2.489133,0.4993929 4.278499,2.6880829 4.273186,5.226813 v 4.800135 l 2.133393,2.133393 v 0.533346 H 3.906523 V 16.418196 L 6.039916,14.284803 V 9.484668 C 6.0350213,6.9460861 7.8241985,4.7576275 10.313104,4.257855 10.250016,3.6301439 10.742526,3.0851112 11.3734,3.084488 Z m 1.844318,14.933752 c -0.380512,0.659069 -1.083293,1.065536 -1.844318,1.066698 -0.761407,-7.81e-4 -1.4646825,-0.407299 -1.8453853,-1.066697 z"
         id="path15-6" />
   </g>
   <g id="22-22-notification-inactive-6" transform="translate(64,-22)">
      <rect style="opacity:0.00100002" width="22" height="22" x="0" y="0" id="rect13-2" />
      <path style="fill:#ebdbb2"
         d="m 11.3734,3.084488 c 0.630873,6.231e-4 1.123384,0.5456558 1.060296,1.173367 2.489133,0.4993929 4.278499,2.6880829 4.273186,5.226813 v 4.800135 l 2.133393,2.133393 v 0.533346 H 3.906523 V 16.418196 L 6.039916,14.284803 V 9.484668 C 6.0350213,6.9460861 7.8241985,4.7576275 10.313104,4.257855 10.250016,3.6301439 10.742526,3.0851112 11.3734,3.084488 Z m 1.844318,14.933752 c -0.380512,0.659069 -1.083293,1.065536 -1.844318,1.066698 -0.761407,-7.81e-4 -1.4646825,-0.407299 -1.8453853,-1.066697 z"
         id="path15-61" />
   </g>
   <g id="22-22-notification-inactive-3-8" transform="translate(96,-22)" style="opacity:0.3">
      <rect style="opacity:0.00100002" width="22" height="22" x="0" y="0" id="rect13-5-7" />
      <path style="fill:#ebdbb2"
         d="m 11.3734,3.084488 c 0.630873,6.231e-4 1.123384,0.5456558 1.060296,1.173367 2.489133,0.4993929 4.278499,2.6880829 4.273186,5.226813 v 4.800135 l 2.133393,2.133393 v 0.533346 H 3.906523 V 16.418196 L 6.039916,14.284803 V 9.484668 C 6.0350213,6.9460861 7.8241985,4.7576275 10.313104,4.257855 10.250016,3.6301439 10.742526,3.0851112 11.3734,3.084488 Z m 1.844318,14.933752 c -0.380512,0.659069 -1.083293,1.065536 -1.844318,1.066698 -0.761407,-7.81e-4 -1.4646825,-0.407299 -1.8453853,-1.066697 z"
         id="path15-6-9" />
   </g>
   <g id="22-22-notification-inactive-6-3" transform="translate(128,-22)">
      <rect style="opacity:0.00100002" width="22" height="22" x="0" y="0" id="rect13-2-7" />
      <path style="fill:#ebdbb2"
         d="m 15.373512,4.1563154 c 0.546041,0.3159761 0.700052,1.0342438 0.33156,1.5463136 1.905956,1.6770535 2.361248,4.467198 1.087281,6.663146 l -2.400067,4.157039 0.780876,2.914269 -0.266673,0.461891 -12.9330088,-7.466876 0.266673,-0.461891 2.914269,-0.780876 2.4000675,-4.1570391 C 8.8195417,4.8313681 11.463244,3.830696 13.868586,4.642333 14.127805,4.0671753 14.826848,3.8414181 15.373512,4.1563154 Z M 9.5038626,18.011483 c -0.6590676,0.380515 -1.4709273,0.381135 -2.1305752,0.0016 -0.6590073,-0.38138 -1.0648028,-1.085073 -1.0648021,-1.84648 z"
         id="path15-61-5" />
   </g>
   <g id="22-22-notification-inactive-6-3-8" transform="translate(159.6266,-22.084488)">
      <rect style="opacity:0.00100002" width="22" height="22" x="0" y="0" id="rect13-2-7-9" />
      <path style="fill:#ebdbb2"
         d="m 15.373512,4.1563154 c 0.546041,0.3159761 0.700052,1.0342438 0.33156,1.5463136 1.905956,1.6770535 2.361248,4.467198 1.087281,6.663146 l -2.400067,4.157039 0.780876,2.914269 -0.266673,0.461891 -12.9330088,-7.466876 0.266673,-0.461891 2.914269,-0.780876 2.4000675,-4.1570391 C 8.8195417,4.8313681 11.463244,3.830696 13.868586,4.642333 14.127805,4.0671753 14.826848,3.8414181 15.373512,4.1563154 Z M 9.5038626,18.011483 c -0.6590676,0.380515 -1.4709273,0.381135 -2.1305752,0.0016 -0.6590073,-0.38138 -1.0648028,-1.085073 -1.0648021,-1.84648 z"
         id="path15-61-5-7" />
   </g>
</svg>