<svg xmlns="http://www.w3.org/2000/svg" width="32" height="32" version="1.1">
    <g id="22-22-notification-active" transform="translate(160,0)">
        <rect style="opacity:0.001" width="22" height="22" x="0" y="40" />
        <path style="fill:#458588"
            d="m 11,-19 a 1.0666966,1.0666966 0 0 1 1.060296,1.173367 5.3196156,5.3196156 0 0 1 4.273186,5.226813 v 4.8001345 l 2.133393,2.1333933 v 0.533346 H 3.533123 v -0.533346 L 5.666516,-7.7996855 V -12.59982 A 5.3206823,5.3206823 0 0 1 9.939704,-17.826633 1.0666966,1.0666966 0 0 1 11,-19 Z m 1.844318,14.9337518 A 2.1333929,2.1333929 0 0 1 11,-2.9995502 2.1333929,2.1333929 0 0 1 9.154615,-4.0662475 Z" />
    </g>
    <path id="expander-bottom" style="fill:#ebdbb2" d="m 1,40 2,-2 2,2 z" />
    <path id="expander-top" style="fill:#ebdbb2" d="m 1,34 2,2 2,-2 z" />
    <path id="expander-right" style="fill:#ebdbb2" d="m 6,35 -2,2 2,2 z" />
    <path id="expander-left" style="fill:#ebdbb2" d="m 0,35 2,2 -2,2 z" />
    <g id="22-22-notification-inactive">
        <rect style="opacity:0.001" width="22" height="22" x="0" y="0" />
        <g>
            <path style="fill:#ebdbb2"
                d="m 11,-19 a 1.0666966,1.0666966 0 0 1 1.060296,1.173367 5.3196156,5.3196156 0 0 1 4.273186,5.226813 v 4.8001345 l 2.133393,2.1333933 v 0.533346 H 3.533123 v -0.533346 L 5.666516,-7.7996855 V -12.59982 A 5.3206823,5.3206823 0 0 1 9.939704,-17.826633 1.0666966,1.0666966 0 0 1 11,-19 Z m 1.844318,14.9337518 A 2.1333929,2.1333929 0 0 1 11,-2.9995502 2.1333929,2.1333929 0 0 1 9.154615,-4.0662475 Z" />
        </g>
    </g>
    <g id="22-22-notification-disabled" transform="translate(32,0)">
        <rect style="opacity:0.001" width="22" height="22" x="0" y="-40" />
        <path style="fill:#ebdbb2;opacity:0.3"
            d="m 11,-19 a 1.0666966,1.0666966 0 0 1 1.060296,1.173367 5.3196156,5.3196156 0 0 1 4.273186,5.226813 v 4.8001345 l 2.133393,2.1333933 v 0.533346 H 3.533123 v -0.533346 L 5.666516,-7.7996855 V -12.59982 A 5.3206823,5.3206823 0 0 1 9.939704,-17.826633 1.0666966,1.0666966 0 0 1 11,-19 Z m 1.844318,14.9337518 A 2.1333929,2.1333929 0 0 1 11,-2.9995502 2.1333929,2.1333929 0 0 1 9.154615,-4.0662475 Z" />
    </g>
    <g id="22-22-notification-empty" transform="translate(64,0)">
        <rect style="opacity:0.001" width="22" height="22" x="40" y="-40" />
        <path style="fill:#ebdbb2"
            d="m 11,-19 a 1.0666966,1.0666966 0 0 1 1.060296,1.173367 5.3196156,5.3196156 0 0 1 4.273186,5.226813 v 4.8001345 l 2.133393,2.1333933 v 0.533346 H 3.533123 v -0.533346 L 5.666516,-7.7996855 V -12.59982 A 5.3206823,5.3206823 0 0 1 9.939704,-17.826633 1.0666966,1.0666966 0 0 1 11,-19 Z m 1.844318,14.9337518 A 2.1333929,2.1333929 0 0 1 11,-2.9995502 2.1333929,2.1333929 0 0 1 9.154615,-4.0662475 Z" />
    </g>
    <g id="22-22-notification-progress-active" transform="translate(128,)">
        <rect style="opacity:0.001" width="22" height="22" x="40" y="0" />
        <path style="fill:#458588"
            d="m 11,-19 a 1.0666966,1.0666966 0 0 1 1.060296,1.173367 5.3196156,5.3196156 0 0 1 4.273186,5.226813 v 4.8001345 l 2.133393,2.1333933 v 0.533346 H 3.533123 v -0.533346 L 5.666516,-7.7996855 V -12.59982 A 5.3206823,5.3206823 0 0 1 9.939704,-17.826633 1.0666966,1.0666966 0 0 1 11,-19 Z m 1.844318,14.9337518 A 2.1333929,2.1333929 0 0 1 11,-2.9995502 2.1333929,2.1333929 0 0 1 9.154615,-4.0662475 Z" />
    </g>
    <g id="22-22-notification-progress-inactive" transform="translate(96,0)">
        <rect style="opacity:0.001" width="22" height="22" x="40" y="40" />
        <path style="opacity:0.3;fill:#ebdbb2"
            d="m 11,-19 a 1.0666966,1.0666966 0 0 1 1.060296,1.173367 5.3196156,5.3196156 0 0 1 4.273186,5.226813 v 4.8001345 l 2.133393,2.1333933 v 0.533346 H 3.533123 v -0.533346 L 5.666516,-7.7996855 V -12.59982 A 5.3206823,5.3206823 0 0 1 9.939704,-17.826633 1.0666966,1.0666966 0 0 1 11,-19 Z m 1.844318,14.9337518 A 2.1333929,2.1333929 0 0 1 11,-2.9995502 2.1333929,2.1333929 0 0 1 9.154615,-4.0662475 Z" />
    </g>
    <g id="notification-inactive">
        <rect style="opacity:0.001" width="32" height="32" x="0" y="0" />
        <path style="fill:#ebdbb2"
            d="m 16.000002,3.999543 a 1.6000609,1.6000609 0 0 1 1.590459,1.7600668 7.9795032,7.9795032 0 0 1 6.409844,7.8402982 v 7.200274 l 3.200121,3.200122 v 0.800027 H 4.7995743 V 24.000304 L 7.9996965,20.800182 V 13.599908 A 7.9811033,7.9811033 0 0 1 14.409541,5.7596098 1.6000609,1.6000609 0 0 1 16.000002,3.999543 Z m 2.766504,22.400851 a 3.2001214,3.2001214 0 0 1 -2.766504,1.600063 3.2001214,3.2001214 0 0 1 -2.768106,-1.600062 z" />
    </g>
    <g id="notification-disabled" transform="translate(32)">
        <rect style="opacity:0.001" width="32" height="32" x="0" y="0" />
        <path style="fill:#ebdbb2;opacity:0.3"
            d="m 16.000002,3.999543 a 1.6000609,1.6000609 0 0 1 1.590459,1.7600668 7.9795032,7.9795032 0 0 1 6.409844,7.8402982 v 7.200274 l 3.200121,3.200122 v 0.800027 H 4.7995743 V 24.000304 L 7.9996965,20.800182 V 13.599908 A 7.9811033,7.9811033 0 0 1 14.409541,5.7596098 1.6000609,1.6000609 0 0 1 16.000002,3.999543 Z m 2.766504,22.400851 a 3.2001214,3.2001214 0 0 1 -2.766504,1.600063 3.2001214,3.2001214 0 0 1 -2.768106,-1.600062 z" />
    </g>
    <g id="notification-empty" transform="translate(64)">
        <rect style="opacity:0.001" width="32" height="32" x="0" y="0" />
        <path style="fill:#ebdbb2"
            d="m 16.000002,3.999543 a 1.6000609,1.6000609 0 0 1 1.590459,1.7600668 7.9795032,7.9795032 0 0 1 6.409844,7.8402982 v 7.200274 l 3.200121,3.200122 v 0.800027 H 4.7995743 V 24.000304 L 7.9996965,20.800182 V 13.599908 A 7.9811033,7.9811033 0 0 1 14.409541,5.7596098 1.6000609,1.6000609 0 0 1 16.000002,3.999543 Z m 2.766504,22.400851 a 3.2001214,3.2001214 0 0 1 -2.766504,1.600063 3.2001214,3.2001214 0 0 1 -2.768106,-1.600062 z" />
    </g>
    <g id="notification-progress-inactive" transform="translate(96)">
        <rect style="opacity:0.001" width="32" height="32" x="0" y="0" />
        <path style="fill:#ebdbb2;opacity:0.3"
            d="m 16.000002,3.999543 a 1.6000609,1.6000609 0 0 1 1.590459,1.7600668 7.9795032,7.9795032 0 0 1 6.409844,7.8402982 v 7.200274 l 3.200121,3.200122 v 0.800027 H 4.7995743 V 24.000304 L 7.9996965,20.800182 V 13.599908 A 7.9811033,7.9811033 0 0 1 14.409541,5.7596098 1.6000609,1.6000609 0 0 1 16.000002,3.999543 Z m 2.766504,22.400851 a 3.2001214,3.2001214 0 0 1 -2.766504,1.600063 3.2001214,3.2001214 0 0 1 -2.768106,-1.600062 z" />
    </g>
    <g id="notification-progress-active" transform="translate(128)">
        <rect style="opacity:0.001" width="32" height="32" x="0" y="0" />
        <path style="fill:#458588"
            d="m 16.000002,3.999543 a 1.6000609,1.6000609 0 0 1 1.590459,1.7600668 7.9795032,7.9795032 0 0 1 6.409844,7.8402982 v 7.200274 l 3.200121,3.200122 v 0.800027 H 4.7995743 V 24.000304 L 7.9996965,20.800182 V 13.599908 A 7.9811033,7.9811033 0 0 1 14.409541,5.7596098 1.6000609,1.6000609 0 0 1 16.000002,3.999543 Z m 2.766504,22.400851 a 3.2001214,3.2001214 0 0 1 -2.766504,1.600063 3.2001214,3.2001214 0 0 1 -2.768106,-1.600062 z" />
    </g>
    <g id="notification-active" transform="translate(160)">
        <rect style="opacity:0.001" width="32" height="32" x="0" y="0" />
        <path style="fill:#458588"
            d="m 16.000002,3.999543 a 1.6000609,1.6000609 0 0 1 1.590459,1.7600668 7.9795032,7.9795032 0 0 1 6.409844,7.8402982 v 7.200274 l 3.200121,3.200122 v 0.800027 H 4.7995743 V 24.000304 L 7.9996965,20.800182 V 13.599908 A 7.9811033,7.9811033 0 0 1 14.409541,5.7596098 1.6000609,1.6000609 0 0 1 16.000002,3.999543 Z m 2.766504,22.400851 a 3.2001214,3.2001214 0 0 1 -2.766504,1.600063 3.2001214,3.2001214 0 0 1 -2.768106,-1.600062 z" />
    </g>
</svg>