<?xml version="1.0" encoding="UTF-8" standalone="no"?>
<svg
   width="32"
   height="32"
   version="1"
   id="svg12"
   sodipodi:docname="cantata.svg"
   inkscape:version="1.1.2 (0a00cf5339, 2022-02-04, custom)"
   xmlns:inkscape="http://www.inkscape.org/namespaces/inkscape"
   xmlns:sodipodi="http://sodipodi.sourceforge.net/DTD/sodipodi-0.dtd"
   xmlns="http://www.w3.org/2000/svg"
   xmlns:svg="http://www.w3.org/2000/svg">
  <defs
     id="defs16" />
  <sodipodi:namedview
     id="namedview14"
     pagecolor="#ffffff"
     bordercolor="#666666"
     borderopacity="1.0"
     inkscape:pageshadow="2"
     inkscape:pageopacity="0.0"
     inkscape:pagecheckerboard="0"
     showgrid="false"
     inkscape:snap-global="true"
     inkscape:zoom="16"
     inkscape:cx="25.75"
     inkscape:cy="15.0625"
     inkscape:window-width="958"
     inkscape:window-height="1058"
     inkscape:window-x="962"
     inkscape:window-y="22"
     inkscape:window-maximized="0"
     inkscape:current-layer="cantata">
    <inkscape:grid
       type="xygrid"
       id="grid30" />
  </sodipodi:namedview>
  <g
     id="22-22-cantata"
     transform="translate(32.000001,10.000001)">
    <rect
       style="opacity:0.001"
       width="22"
       height="22"
       x="0"
       y="0"
       rx=".582"
       ry=".688"
       id="rect2" />
    <path
       style="fill:#ebdbb2;stroke-width:1.12239"
       d="m 10.787359,2.0001366 a 8.9791619,8.9791619 0 0 0 -8.7665214,9.0273904 8.9791625,8.9791625 0 0 0 17.9583234,0 8.9791619,8.9791619 0 0 0 -9.191802,-9.0273904 z M 11,4.2427351 c 3.713358,0 6.734372,3.0210133 6.734372,6.7343729 0,3.713356 -3.021014,6.734369 -6.734372,6.734369 -3.7133587,0 -6.7343719,-3.021013 -6.7343719,-6.734369 0,-3.7133596 3.0210132,-6.7343729 6.7343719,-6.7343729 z m 0.449396,1.1223951 C 11.000439,5.3651302 11,5.8342564 11,5.8342564 v 5.3752206 c -0.431563,-0.152693 -0.752591,-0.231618 -1.2341964,-0.232369 -1.7356687,0 -3.2553852,1.005025 -3.2553852,2.244787 0,1.239764 1.6315172,2.24479 3.3671858,2.24479 1.7356698,0 3.3671868,-1.005026 3.3671868,-2.24479 V 7.6099207 c 0,0 2.544796,1.3004828 1.486297,2.2710978 -0.29071,0.1667545 -0.386473,0.4244845 -0.335403,0.6488855 0.07754,0.340767 0.49383,0.604614 1.069782,0.359516 0.865384,-0.451191 1.146509,-1.2600648 1.146509,-1.9335019 0,-2.0203113 -3.366745,-3.5907879 -5.16258,-3.5907879 z"
       id="path4" />
  </g>
  <g
     id="cantata">
    <rect
       style="opacity:0.001"
       width="32"
       height="32"
       x="0"
       y="0"
       rx=".847"
       ry="1.001"
       id="rect7" />
    <path
       style="fill:#ebdbb2;stroke-width:1.16687"
       d="M 15.668406,2.0002863 C 8.0356916,2.1804965 1.9546784,8.4260557 1.9978248,16.040779 2.0008192,23.751595 8.2689294,30.000847 16,30.000847 c 7.73107,0 13.999181,-6.249252 14.002174,-13.960068 C 30.046793,8.1674105 23.56037,1.8137034 15.668406,2.0002863 Z M 16,5.4882473 c 5.790639,0 10.501633,4.6986467 10.501633,10.4741127 0,5.775465 -4.710994,10.474107 -10.501633,10.474107 -5.790639,0 -10.5016313,-4.698642 -10.5016313,-10.474107 C 5.4983687,10.186894 10.209361,5.4882473 16,5.4882473 Z m 0.700793,2.3294069 C 16.000684,7.8176542 16,8.5472961 16,8.5472961 V 16.32377 c -0.672982,-0.237486 -1.173597,-0.36024 -1.924616,-0.36141 -2.706613,0 -5.0764715,1.563139 -5.0764715,3.491366 0,1.928233 2.5441995,3.491371 5.2508165,3.491371 2.706616,0 5.250818,-1.563138 5.250818,-3.491371 v -8.144702 c 0,0 3.479516,1.438949 1.828883,2.948566 -0.453334,0.259356 -0.602665,0.660211 -0.52303,1.009225 0.120928,0.530003 0.770084,0.94037 1.668228,0.559164 1.349486,-0.701747 1.787877,-1.959805 1.787877,-3.007218 0,-3.1422332 -4.761274,-5.0011068 -7.561712,-5.0011068 z"
       id="path9" />
  </g>
</svg>
