<svg id="svg68" width="32" height="32" version="1.1" xmlns="http://www.w3.org/2000/svg">
 <g id="g6" fill="#ebdbb2">
  <path id="expander-bottom" d="m1 40 2-2 2 2z"/>
  <path id="expander-top" d="m1 34 2 2 2-2z"/>
  <path id="expander-right" d="m6 35-2 2 2 2z"/>
  <path id="expander-left" d="m0 35 2 2-2 2z"/>
 </g>
 <g id="22-22-notification-inactive" transform="translate(0,-22)">
  <rect id="rect13" width="22" height="22" opacity=".001"/>
  <path id="path15" d="m11.373 3.0845c0.63087 6.231e-4 1.1234 0.54566 1.0603 1.1734 2.4891 0.49939 4.2785 2.6881 4.2732 5.2268v4.8001l2.1334 2.1334v0.53335h-14.934v-0.53335l2.1334-2.1334v-4.8001c-0.0048947-2.5386 1.7843-4.727 4.2732-5.2268-0.063088-0.62771 0.42942-1.1727 1.0603-1.1734zm1.8443 14.934c-0.38051 0.65907-1.0833 1.0655-1.8443 1.0667-0.76141-7.81e-4 -1.4647-0.4073-1.8454-1.0667z" fill="#ebdbb2"/>
 </g>
 <g id="notification-inactive">
  <rect id="rect38" width="32" height="32" opacity=".001"/>
  <path id="path40" d="m16 3.9995a1.6001 1.6001 0 0 1 1.5905 1.7601 7.9795 7.9795 0 0 1 6.4098 7.8403v7.2003l3.2001 3.2001v0.80003h-22.401v-0.80003l3.2001-3.2001v-7.2003a7.9811 7.9811 0 0 1 6.4098-7.8403 1.6001 1.6001 0 0 1 1.5905-1.7601zm2.7665 22.401a3.2001 3.2001 0 0 1-2.7665 1.6001 3.2001 3.2001 0 0 1-2.7681-1.6001z" fill="#ebdbb2"/>
 </g>
 <g id="notification-disabled" transform="translate(32)">
  <rect id="rect43" width="32" height="32" opacity=".001"/>
  <path id="path45" d="m16 3.9995a1.6001 1.6001 0 0 1 1.5905 1.7601 7.9795 7.9795 0 0 1 6.4098 7.8403v7.2003l3.2001 3.2001v0.80003h-22.401v-0.80003l3.2001-3.2001v-7.2003a7.9811 7.9811 0 0 1 6.4098-7.8403 1.6001 1.6001 0 0 1 1.5905-1.7601zm2.7665 22.401a3.2001 3.2001 0 0 1-2.7665 1.6001 3.2001 3.2001 0 0 1-2.7681-1.6001z" fill="#665c54"/>
 </g>
 <g id="notification-empty" transform="translate(64)">
  <rect id="rect48" width="32" height="32" opacity=".001"/>
  <path id="path50" d="m16 3.9995a1.6001 1.6001 0 0 1 1.5905 1.7601 7.9795 7.9795 0 0 1 6.4098 7.8403v7.2003l3.2001 3.2001v0.80003h-22.401v-0.80003l3.2001-3.2001v-7.2003a7.9811 7.9811 0 0 1 6.4098-7.8403 1.6001 1.6001 0 0 1 1.5905-1.7601zm2.7665 22.401a3.2001 3.2001 0 0 1-2.7665 1.6001 3.2001 3.2001 0 0 1-2.7681-1.6001z" fill="#ebdbb2"/>
 </g>
 <g id="notification-progress-inactive" transform="translate(96)">
  <rect id="rect53" width="32" height="32" opacity=".001"/>
  <path id="path55" d="m16 3.9995a1.6001 1.6001 0 0 1 1.5905 1.7601 7.9795 7.9795 0 0 1 6.4098 7.8403v7.2003l3.2001 3.2001v0.80003h-22.401v-0.80003l3.2001-3.2001v-7.2003a7.9811 7.9811 0 0 1 6.4098-7.8403 1.6001 1.6001 0 0 1 1.5905-1.7601zm2.7665 22.401a3.2001 3.2001 0 0 1-2.7665 1.6001 3.2001 3.2001 0 0 1-2.7681-1.6001z" fill="#665c54"/>
 </g>
 <g id="notification-progress-active" transform="translate(128)">
  <rect id="rect58" width="32" height="32" opacity=".001"/>
  <path id="path60" d="m22 5.6073a1.6001 1.6001 0 0 1 0.49734 2.3195 7.9795 7.9795 0 0 1 1.6309 9.9948l-3.6001 6.2356 1.1713 4.3714-0.40001 0.69284-19.4-11.2 0.40001-0.69284 4.3714-1.1713 3.6001-6.2356a7.9811 7.9811 0 0 1 9.4712-3.585 1.6001 1.6001 0 0 1 2.2574-0.72903zm-8.8046 20.783a3.2001 3.2001 0 0 1-3.1959 0.0024 3.2001 3.2001 0 0 1-1.5972-2.7697z" fill="#ebdbb2"/>
 </g>
 <g id="notification-active" transform="translate(160)">
  <rect id="rect63" width="32" height="32" opacity=".001"/>
  <path id="path65" d="m22 5.6073a1.6001 1.6001 0 0 1 0.49734 2.3195 7.9795 7.9795 0 0 1 1.6309 9.9948l-3.6001 6.2356 1.1713 4.3714-0.40001 0.69284-19.4-11.2 0.40001-0.69284 4.3714-1.1713 3.6001-6.2356a7.9811 7.9811 0 0 1 9.4712-3.585 1.6001 1.6001 0 0 1 2.2574-0.72903zm-8.8046 20.783a3.2001 3.2001 0 0 1-3.1959 0.0024 3.2001 3.2001 0 0 1-1.5972-2.7697z" fill="#ebdbb2"/>
 </g>
 <g id="22-22-notification-inactive-3" transform="translate(32,-22)">
  <rect id="rect13-5" width="22" height="22" opacity=".001"/>
  <path id="path15-6" d="m11.373 3.0845c0.63087 6.231e-4 1.1234 0.54566 1.0603 1.1734 2.4891 0.49939 4.2785 2.6881 4.2732 5.2268v4.8001l2.1334 2.1334v0.53335h-14.934v-0.53335l2.1334-2.1334v-4.8001c-0.0048947-2.5386 1.7843-4.727 4.2732-5.2268-0.063088-0.62771 0.42942-1.1727 1.0603-1.1734zm1.8443 14.934c-0.38051 0.65907-1.0833 1.0655-1.8443 1.0667-0.76141-7.81e-4 -1.4647-0.4073-1.8454-1.0667z" fill="#665c54"/>
 </g>
 <g id="22-22-notification-inactive-6" transform="translate(64,-22)">
  <rect id="rect13-2" width="22" height="22" opacity=".001"/>
  <path id="path15-61" d="m11.373 3.0845c0.63087 6.231e-4 1.1234 0.54566 1.0603 1.1734 2.4891 0.49939 4.2785 2.6881 4.2732 5.2268v4.8001l2.1334 2.1334v0.53335h-14.934v-0.53335l2.1334-2.1334v-4.8001c-0.0048947-2.5386 1.7843-4.727 4.2732-5.2268-0.063088-0.62771 0.42942-1.1727 1.0603-1.1734zm1.8443 14.934c-0.38051 0.65907-1.0833 1.0655-1.8443 1.0667-0.76141-7.81e-4 -1.4647-0.4073-1.8454-1.0667z" fill="#ebdbb2"/>
 </g>
 <g id="22-22-notification-inactive-3-8" transform="translate(96,-22)">
  <rect id="rect13-5-7" width="22" height="22" opacity=".001"/>
  <path id="path15-6-9" d="m11.373 3.0845c0.63087 6.231e-4 1.1234 0.54566 1.0603 1.1734 2.4891 0.49939 4.2785 2.6881 4.2732 5.2268v4.8001l2.1334 2.1334v0.53335h-14.934v-0.53335l2.1334-2.1334v-4.8001c-0.0048947-2.5386 1.7843-4.727 4.2732-5.2268-0.063088-0.62771 0.42942-1.1727 1.0603-1.1734zm1.8443 14.934c-0.38051 0.65907-1.0833 1.0655-1.8443 1.0667-0.76141-7.81e-4 -1.4647-0.4073-1.8454-1.0667z" fill="#665c54"/>
 </g>
 <g id="22-22-notification-inactive-6-3" transform="translate(128,-22)">
  <rect id="rect13-2-7" width="22" height="22" opacity=".001"/>
  <path id="path15-61-5" d="m15.374 4.1563c0.54604 0.31598 0.70005 1.0342 0.33156 1.5463 1.906 1.6771 2.3612 4.4672 1.0873 6.6631l-2.4001 4.157 0.78088 2.9143-0.26667 0.46189-12.933-7.4669 0.26667-0.46189 2.9143-0.78088 2.4001-4.157c1.2651-2.2009 3.9088-3.2016 6.3141-2.39 0.25922-0.57516 0.95826-0.80091 1.5049-0.48602zm-5.8696 13.855c-0.65907 0.38052-1.4709 0.38114-2.1306 0.0016-0.65901-0.38138-1.0648-1.0851-1.0648-1.8465z" fill="#ebdbb2"/>
 </g>
 <g id="22-22-notification-inactive-6-3-8" transform="translate(159.63 -22.084)">
  <rect id="rect13-2-7-9" width="22" height="22" opacity=".001"/>
  <path id="path15-61-5-7" d="m15.374 4.1563c0.54604 0.31598 0.70005 1.0342 0.33156 1.5463 1.906 1.6771 2.3612 4.4672 1.0873 6.6631l-2.4001 4.157 0.78088 2.9143-0.26667 0.46189-12.933-7.4669 0.26667-0.46189 2.9143-0.78088 2.4001-4.157c1.2651-2.2009 3.9088-3.2016 6.3141-2.39 0.25922-0.57516 0.95826-0.80091 1.5049-0.48602zm-5.8696 13.855c-0.65907 0.38052-1.4709 0.38114-2.1306 0.0016-0.65901-0.38138-1.0648-1.0851-1.0648-1.8465z" fill="#ebdbb2"/>
 </g>
</svg>
