<?xml version="1.0" encoding="UTF-8" standalone="no"?>
<!-- Created with Inkscape (http://www.inkscape.org/) -->

<svg
   width="136"
   height="136"
   viewBox="0 0 35.983333 35.983334"
   id="svg2"
   version="1.1">
  <g
     inkscape:label="Capa 1"
     inkscape:groupmode="layer"
     id="layer1"
     transform="translate(0.52916664,-249.37498)">
    <g
       id="stopped">
      <rect
         style="opacity:1;fill:none;fill-opacity:1;stroke:none;stroke-width:0.02645833;stroke-linecap:square;stroke-linejoin:miter;stroke-miterlimit:4;stroke-dasharray:none;stroke-dashoffset:0;stroke-opacity:1"
         id="rect4234"
         width="35.983334"
         height="35.983334"
         x="-42.862503"
         y="249.37497" />
      <ellipse
         ry="1.3229166"
         rx="1.322917"
         cy="38.364582"
         cx="267.36664"
         id="ellipse4238"
         style="opacity:0.9;fill:#fb4934;fill-opacity:1;stroke:none;stroke-width:0.01322917;stroke-linecap:square;stroke-linejoin:miter;stroke-miterlimit:4;stroke-dasharray:none;stroke-dashoffset:0;stroke-opacity:1"
         transform="rotate(90)" />
      <ellipse
         transform="rotate(90)"
         style="opacity:0.9;fill:#fb4934;fill-opacity:1;stroke:none;stroke-width:0.01058334;stroke-linecap:square;stroke-linejoin:miter;stroke-miterlimit:4;stroke-dasharray:none;stroke-dashoffset:0;stroke-opacity:1"
         id="ellipse4261"
         cx="267.36664"
         cy="11.377067"
         rx="1.0583339"
         ry="1.0583336" />
      <ellipse
         ry="2.1166663"
         rx="2.116667"
         cy="24.870825"
         cx="267.36664"
         id="ellipse4263"
         style="opacity:0.9;fill:#fb4934;fill-opacity:1;stroke:none;stroke-width:0.02116666;stroke-linecap:square;stroke-linejoin:miter;stroke-miterlimit:4;stroke-dasharray:none;stroke-dashoffset:0;stroke-opacity:1"
         transform="rotate(90)" />
    </g>
    <rect
       style="fill:#458588;fill-opacity:1;fill-rule:nonzero;stroke:none;stroke-width:0.26458335"
       id="hint-rotation-angle"
       width="3.7041671"
       height="3.7041693"
       x="-0.52916706"
       y="285.35831" />
    <g
       id="busywidget"
       transform="translate(-36.777084,0)">
      <rect
         style="fill:none;stroke:none"
         id="rect3016"
         width="35.983334"
         height="35.983334"
         x="36.247917"
         y="249.37498" />
      <path
         inkscape:connector-curvature="0"
         class="ColorScheme-Highlight"
         id="path3018"
         transform="matrix(0.26458334,0,0,0.26458334,-0.52916714,249.37498)"
         d="m 207,7 a 60.999998,61.000013 0 0 0 -61,61 60.999998,61.000013 0 0 0 52.5,60.34375 60.999998,61.000013 0 0 0 0.0625,0 60.999998,61.000013 0 0 0 0.125,0.0313 60.999998,61.000013 0 0 0 3.46875,0.40625 60.999998,61.000013 0 0 0 1.34375,0.0937 60.999998,61.000013 0 0 0 0.0313,0 c 0.15685,0.009 0.31182,0.0232 0.46875,0.0313 A 60.999998,61.000013 0 0 0 207,129 c 0.15564,-7.2e-4 0.31314,-0.0292 0.46875,-0.0313 a 60.999998,61.000013 0 0 0 4.1875,-0.21875 c 0.20839,-0.0188 0.41684,-0.0101 0.625,-0.0313 12.83843,-1.3057 25.21151,-7.11778 34.34375,-16.25 10.43684,-10.43683 16.49999,-25.115076 16.5,-39.875 0,-5.534972 -0.85031,-11.052726 -2.46875,-16.34375 A 54.99999,55.000005 0 0 1 262,68 54.99999,55.000005 0 0 1 207,123 54.99999,55.000002 0 0 1 152,68 54.99999,55.000002 0 0 1 154.46875,51.75 54.99999,55.000002 0 0 1 207,13 l 1,0 c 1.10799,0 2,-0.892032 2,-2 l 0,-2 c 0,-1.1079685 -0.89201,-2 -2,-2 l -1,0 z"
         style="fill:#ebdbb2;fill-opacity:1;stroke:none" />
    </g>
  </g>
</svg>
