<?xml version="1.0" encoding="UTF-8" standalone="no"?>

<svg
   version="1.1"
   id="svg2"
   viewBox="0 0 32 32"
   sodipodi:docname="plasma.svg"
   width="32"
   height="32">
  <g
     transform="matrix(2,0,0,2,-849.42858,-1057.5815)"
     id="start-here-kde">
    <path
       inkscape:connector-curvature="0"
       style="color:#282828;opacity:1;fill:#ebdbb2;fill-opacity:1;stroke:none"
       d="m 428.71429,528.79074 c -0.554,0 -1,0.446 -1,1 0,0.554 0.446,1 1,1 0.554,0 1,-0.446 1,-1 0,-0.554 -0.446,-1 -1,-1 z m 7,0 -2,2 3,3 -3,3 2,2 3,-3 2,-2 -5,-5 z m -9.5,6 c -0.831,0 -1.5,0.669 -1.5,1.5 0,0.831 0.669,1.5 1.5,1.5 0.831,0 1.5,-0.669 1.5,-1.5 0,-0.831 -0.669,-1.5 -1.5,-1.5 z m 4.5,6 c -1.108,0 -2,0.892 -2,2 0,1.108 0.892,2 2,2 1.108,0 2,-0.892 2,-2 0,-1.108 -0.892,-2 -2,-2 z"
       id="path3392"
       class="ColorScheme-Text" />
  </g>
</svg>
